STARTFONT 2.3
FONT -FontForge-Indie Flower-Book-R-Normal--10-100-72-72-P-46-ISO10646-1
SIZE 10 72 72  2
FONTBOUNDINGBOX 13 15 -2 -5
COMMENT "Generated by fontforge, http://fontforge.sourceforge.net"
COMMENT "Copyright (c) 2010, Kimberly Geswein (kimberlygeswein.com)"
STARTPROPERTIES 40
FOUNDRY "FontForge"
FAMILY_NAME "Indie Flower"
WEIGHT_NAME "Book"
SLANT "R"
SETWIDTH_NAME "Normal"
ADD_STYLE_NAME ""
PIXEL_SIZE 10
POINT_SIZE 100
RESOLUTION_X 72
RESOLUTION_Y 72
SPACING "P"
AVERAGE_WIDTH 46
CHARSET_REGISTRY "ISO10646"
CHARSET_ENCODING "1"
FONTNAME_REGISTRY ""
CHARSET_COLLECTIONS "ISO8859-2 ISO8859-9 ISO8859-4 ISO10646-1"
BITS_PER_PIXEL 2
FONT_NAME "IndieFlower"
FACE_NAME "Indie Flower"
COPYRIGHT "Copyright (c) 2010, Kimberly Geswein (kimberlygeswein.com)"
FONT_VERSION "1.001 2010"
FONT_ASCENT 8
FONT_DESCENT 2
UNDERLINE_POSITION -1
UNDERLINE_THICKNESS 1
X_HEIGHT 3
CAP_HEIGHT 4
RAW_ASCENT 799
RAW_DESCENT 200
NORM_SPACE 4
RELATIVE_WEIGHT 40
RELATIVE_SETWIDTH 50
SUPERSCRIPT_X 0
SUPERSCRIPT_Y 4
SUPERSCRIPT_SIZE 6
SUBSCRIPT_X 0
SUBSCRIPT_Y 1
SUBSCRIPT_SIZE 6
AVG_LOWERCASE_WIDTH 45
AVG_UPPERCASE_WIDTH 53
ENDPROPERTIES
CHARS 356
STARTCHAR space
ENCODING 32
SWIDTH 375 0
DWIDTH 4 0
BBX 1 1 0 0
BITMAP
00
ENDCHAR
STARTCHAR exclam
ENCODING 33
SWIDTH 149 0
DWIDTH 2 0
BBX 2 8 0 0
BITMAP
40
40
80
80
80
40
00
90
ENDCHAR
STARTCHAR quotedbl
ENCODING 34
SWIDTH 234 0
DWIDTH 2 0
BBX 2 3 0 5
BITMAP
50
A0
60
ENDCHAR
STARTCHAR numbersign
ENCODING 35
SWIDTH 768 0
DWIDTH 8 0
BBX 7 5 0 0
BITMAP
0140
06A4
66A4
1690
0150
ENDCHAR
STARTCHAR dollar
ENCODING 36
SWIDTH 581 0
DWIDTH 6 0
BBX 6 9 0 0
BITMAP
0140
0680
1940
0A00
0680
0550
9620
1E50
0600
ENDCHAR
STARTCHAR percent
ENCODING 37
SWIDTH 636 0
DWIDTH 6 0
BBX 6 6 0 0
BITMAP
1040
9440
9500
04A0
0960
1190
ENDCHAR
STARTCHAR ampersand
ENCODING 38
SWIDTH 457 0
DWIDTH 5 0
BBX 4 7 0 0
BITMAP
14
28
24
22
59
88
A1
ENDCHAR
STARTCHAR quotesingle
ENCODING 39
SWIDTH 102 0
DWIDTH 1 0
BBX 1 2 0 5
BITMAP
80
80
ENDCHAR
STARTCHAR parenleft
ENCODING 40
SWIDTH 421 0
DWIDTH 4 0
BBX 4 7 0 -1
BITMAP
06
14
50
80
80
50
14
ENDCHAR
STARTCHAR parenright
ENCODING 41
SWIDTH 290 0
DWIDTH 3 0
BBX 3 7 0 -1
BITMAP
60
14
08
08
14
60
40
ENDCHAR
STARTCHAR asterisk
ENCODING 42
SWIDTH 412 0
DWIDTH 4 0
BBX 4 4 0 2
BITMAP
55
7D
5D
04
ENDCHAR
STARTCHAR plus
ENCODING 43
SWIDTH 459 0
DWIDTH 5 0
BBX 4 4 0 0
BITMAP
14
69
58
08
ENDCHAR
STARTCHAR comma
ENCODING 44
SWIDTH 130 0
DWIDTH 1 0
BBX 1 4 0 -2
BITMAP
40
80
80
40
ENDCHAR
STARTCHAR hyphen
ENCODING 45
SWIDTH 375 0
DWIDTH 4 0
BBX 3 2 0 2
BITMAP
04
54
ENDCHAR
STARTCHAR period
ENCODING 46
SWIDTH 204 0
DWIDTH 2 0
BBX 2 2 0 0
BITMAP
50
60
ENDCHAR
STARTCHAR slash
ENCODING 47
SWIDTH 309 0
DWIDTH 3 0
BBX 3 8 0 0
BITMAP
04
04
04
14
20
20
40
80
ENDCHAR
STARTCHAR zero
ENCODING 48
SWIDTH 430 0
DWIDTH 4 0
BBX 4 4 0 0
BITMAP
29
42
42
29
ENDCHAR
STARTCHAR one
ENCODING 49
SWIDTH 318 0
DWIDTH 3 0
BBX 3 6 0 0
BITMAP
04
08
28
98
04
14
ENDCHAR
STARTCHAR two
ENCODING 50
SWIDTH 497 0
DWIDTH 5 0
BBX 5 6 0 0
BITMAP
0500
0600
0140
0140
5200
6A40
ENDCHAR
STARTCHAR three
ENCODING 51
SWIDTH 430 0
DWIDTH 4 0
BBX 4 6 0 0
BITMAP
14
55
18
19
42
2A
ENDCHAR
STARTCHAR four
ENCODING 52
SWIDTH 412 0
DWIDTH 4 0
BBX 4 6 0 0
BITMAP
40
81
42
9A
12
02
ENDCHAR
STARTCHAR five
ENCODING 53
SWIDTH 571 0
DWIDTH 6 0
BBX 5 7 0 0
BITMAP
0680
0400
2400
1600
0080
4080
6A40
ENDCHAR
STARTCHAR six
ENCODING 54
SWIDTH 440 0
DWIDTH 4 0
BBX 4 6 0 0
BITMAP
0A
20
54
92
82
69
ENDCHAR
STARTCHAR seven
ENCODING 55
SWIDTH 412 0
DWIDTH 4 0
BBX 4 6 0 0
BITMAP
54
18
08
2E
08
04
ENDCHAR
STARTCHAR eight
ENCODING 56
SWIDTH 375 0
DWIDTH 4 0
BBX 4 6 0 0
BITMAP
24
88
64
54
41
29
ENDCHAR
STARTCHAR nine
ENCODING 57
SWIDTH 300 0
DWIDTH 3 0
BBX 3 6 0 0
BITMAP
54
88
A8
08
08
08
ENDCHAR
STARTCHAR colon
ENCODING 58
SWIDTH 84 0
DWIDTH 1 0
BBX 1 1 0 0
BITMAP
00
ENDCHAR
STARTCHAR semicolon
ENCODING 59
SWIDTH 128 0
DWIDTH 1 0
BBX 1 6 0 -2
BITMAP
40
00
00
80
80
40
ENDCHAR
STARTCHAR less
ENCODING 60
SWIDTH 487 0
DWIDTH 5 0
BBX 5 4 0 0
BITMAP
0240
1800
9000
6A00
ENDCHAR
STARTCHAR equal
ENCODING 61
SWIDTH 524 0
DWIDTH 5 0
BBX 5 3 0 1
BITMAP
6A80
0000
6A40
ENDCHAR
STARTCHAR greater
ENCODING 62
SWIDTH 403 0
DWIDTH 4 0
BBX 4 5 0 0
BITMAP
40
29
02
18
50
ENDCHAR
STARTCHAR question
ENCODING 63
SWIDTH 272 0
DWIDTH 3 0
BBX 3 9 0 0
BITMAP
50
14
04
24
20
24
00
00
04
ENDCHAR
STARTCHAR at
ENCODING 64
SWIDTH 815 0
DWIDTH 8 0
BBX 8 9 0 0
BITMAP
0590
2018
4042
4562
4422
4475
1694
1400
0669
ENDCHAR
STARTCHAR A
ENCODING 65
SWIDTH 562 0
DWIDTH 6 0
BBX 6 8 0 0
BITMAP
1500
1140
4080
4040
9590
8150
4050
5050
ENDCHAR
STARTCHAR B
ENCODING 66
SWIDTH 741 0
DWIDTH 7 0
BBX 7 7 0 0
BITMAP
6A40
0850
0980
09A0
0508
0508
06A8
ENDCHAR
STARTCHAR C
ENCODING 67
SWIDTH 515 0
DWIDTH 5 0
BBX 5 7 0 0
BITMAP
0500
1500
5000
4000
4000
8000
2A40
ENDCHAR
STARTCHAR D
ENCODING 68
SWIDTH 741 0
DWIDTH 7 0
BBX 7 7 0 0
BITMAP
1400
5690
0214
0208
0204
0208
06A4
ENDCHAR
STARTCHAR E
ENCODING 69
SWIDTH 524 0
DWIDTH 5 0
BBX 5 6 0 0
BITMAP
9540
8000
9600
8000
8000
6A40
ENDCHAR
STARTCHAR F
ENCODING 70
SWIDTH 514 0
DWIDTH 5 0
BBX 6 6 0 0
BITMAP
7A90
2000
2500
6900
1400
0400
ENDCHAR
STARTCHAR G
ENCODING 71
SWIDTH 571 0
DWIDTH 6 0
BBX 6 7 0 -1
BITMAP
0040
0540
2000
4580
4050
2990
0010
ENDCHAR
STARTCHAR H
ENCODING 72
SWIDTH 524 0
DWIDTH 5 0
BBX 5 7 0 0
BITMAP
4040
4040
8080
4680
A480
5080
1080
ENDCHAR
STARTCHAR I
ENCODING 73
SWIDTH 167 0
DWIDTH 2 0
BBX 2 6 0 0
BITMAP
40
80
40
50
50
10
ENDCHAR
STARTCHAR J
ENCODING 74
SWIDTH 439 0
DWIDTH 4 0
BBX 5 7 0 0
BITMAP
0100
0200
0200
4100
4140
1100
0A00
ENDCHAR
STARTCHAR K
ENCODING 75
SWIDTH 468 0
DWIDTH 5 0
BBX 5 6 0 0
BITMAP
4400
5400
9000
A000
9800
4240
ENDCHAR
STARTCHAR L
ENCODING 76
SWIDTH 346 0
DWIDTH 3 0
BBX 3 5 0 0
BITMAP
80
80
80
80
68
ENDCHAR
STARTCHAR M
ENCODING 77
SWIDTH 534 0
DWIDTH 5 0
BBX 5 6 0 0
BITMAP
8080
6680
5580
4080
4080
4080
ENDCHAR
STARTCHAR N
ENCODING 78
SWIDTH 609 0
DWIDTH 6 0
BBX 6 5 0 0
BITMAP
8080
9050
A020
9820
8690
ENDCHAR
STARTCHAR O
ENCODING 79
SWIDTH 609 0
DWIDTH 6 0
BBX 6 5 0 0
BITMAP
2900
4180
4020
5020
2A80
ENDCHAR
STARTCHAR P
ENCODING 80
SWIDTH 627 0
DWIDTH 6 0
BBX 6 6 0 0
BITMAP
6A40
0420
0420
0A90
0500
0100
ENDCHAR
STARTCHAR Q
ENCODING 81
SWIDTH 642 0
DWIDTH 6 0
BBX 7 7 0 -1
BITMAP
0400
1640
8150
8010
5220
1AD0
0024
ENDCHAR
STARTCHAR R
ENCODING 82
SWIDTH 579 0
DWIDTH 6 0
BBX 6 8 0 -1
BITMAP
1400
9680
1050
2A40
2400
1500
0540
0010
ENDCHAR
STARTCHAR S
ENCODING 83
SWIDTH 627 0
DWIDTH 6 0
BBX 6 6 0 0
BITMAP
1580
2000
0900
0190
8020
1990
ENDCHAR
STARTCHAR T
ENCODING 84
SWIDTH 581 0
DWIDTH 6 0
BBX 7 6 0 0
BITMAP
5AA4
0200
0200
0200
0200
0140
ENDCHAR
STARTCHAR U
ENCODING 85
SWIDTH 571 0
DWIDTH 6 0
BBX 6 6 0 0
BITMAP
4000
4080
4080
4080
50D0
2A10
ENDCHAR
STARTCHAR V
ENCODING 86
SWIDTH 421 0
DWIDTH 4 0
BBX 4 5 0 0
BITMAP
82
52
22
19
08
ENDCHAR
STARTCHAR W
ENCODING 87
SWIDTH 703 0
DWIDTH 7 0
BBX 7 5 0 0
BITMAP
4010
8018
8508
8608
24A4
ENDCHAR
STARTCHAR X
ENCODING 88
SWIDTH 534 0
DWIDTH 5 0
BBX 5 6 0 -1
BITMAP
2080
1500
1C00
2500
4100
4000
ENDCHAR
STARTCHAR Y
ENCODING 89
SWIDTH 403 0
DWIDTH 4 0
BBX 4 6 0 0
BITMAP
81
26
09
08
08
08
ENDCHAR
STARTCHAR Z
ENCODING 90
SWIDTH 571 0
DWIDTH 6 0
BBX 6 7 0 0
BITMAP
1000
5500
0100
0640
1A40
0800
1A90
ENDCHAR
STARTCHAR bracketleft
ENCODING 91
SWIDTH 477 0
DWIDTH 5 0
BBX 6 8 0 -1
BITMAP
1A40
9000
4000
5000
1000
1000
1000
2A90
ENDCHAR
STARTCHAR backslash
ENCODING 92
SWIDTH 430 0
DWIDTH 4 0
BBX 4 5 0 0
BITMAP
50
20
08
06
02
ENDCHAR
STARTCHAR bracketright
ENCODING 93
SWIDTH 430 0
DWIDTH 4 0
BBX 4 10 0 -1
BITMAP
50
19
02
02
01
01
01
02
02
6B
ENDCHAR
STARTCHAR asciicircum
ENCODING 94
SWIDTH 375 0
DWIDTH 4 0
BBX 3 2 0 5
BITMAP
28
54
ENDCHAR
STARTCHAR underscore
ENCODING 95
SWIDTH 656 0
DWIDTH 7 0
BBX 7 1 0 0
BITMAP
6AA4
ENDCHAR
STARTCHAR grave
ENCODING 96
SWIDTH 172 0
DWIDTH 2 0
BBX 2 2 0 4
BITMAP
40
10
ENDCHAR
STARTCHAR a
ENCODING 97
SWIDTH 505 0
DWIDTH 5 0
BBX 5 5 0 0
BITMAP
1900
0200
6680
8080
6A40
ENDCHAR
STARTCHAR b
ENCODING 98
SWIDTH 497 0
DWIDTH 5 0
BBX 5 6 0 0
BITMAP
8000
8000
9400
5640
5080
2A40
ENDCHAR
STARTCHAR c
ENCODING 99
SWIDTH 449 0
DWIDTH 5 0
BBX 4 4 0 0
BITMAP
25
80
80
69
ENDCHAR
STARTCHAR d
ENCODING 100
SWIDTH 524 0
DWIDTH 5 0
BBX 5 7 0 0
BITMAP
0200
0140
6980
8280
8180
8280
6940
ENDCHAR
STARTCHAR e
ENCODING 101
SWIDTH 515 0
DWIDTH 5 0
BBX 5 5 0 0
BITMAP
2500
8200
9800
4000
2A40
ENDCHAR
STARTCHAR f
ENCODING 102
SWIDTH 376 0
DWIDTH 4 0
BBX 5 7 0 0
BITMAP
1A00
1040
1000
2000
6500
1400
0800
ENDCHAR
STARTCHAR g
ENCODING 103
SWIDTH 366 0
DWIDTH 4 0
BBX 6 9 -2 -5
BITMAP
0280
0450
0850
06A0
0020
0020
4020
2410
0A80
ENDCHAR
STARTCHAR h
ENCODING 104
SWIDTH 427 0
DWIDTH 4 0
BBX 4 7 0 0
BITMAP
40
80
94
95
42
52
52
ENDCHAR
STARTCHAR i
ENCODING 105
SWIDTH 174 0
DWIDTH 2 0
BBX 2 6 0 0
BITMAP
40
00
40
50
50
10
ENDCHAR
STARTCHAR j
ENCODING 106
SWIDTH 200 0
DWIDTH 2 0
BBX 4 11 -1 -5
BITMAP
10
00
04
08
08
08
08
45
85
28
04
ENDCHAR
STARTCHAR k
ENCODING 107
SWIDTH 403 0
DWIDTH 4 0
BBX 4 6 0 0
BITMAP
40
84
84
60
60
5A
ENDCHAR
STARTCHAR l
ENCODING 108
SWIDTH 120 0
DWIDTH 1 0
BBX 1 6 0 0
BITMAP
80
80
80
80
80
40
ENDCHAR
STARTCHAR m
ENCODING 109
SWIDTH 750 0
DWIDTH 8 0
BBX 8 5 0 0
BITMAP
0010
A9A8
8308
8205
4004
ENDCHAR
STARTCHAR n
ENCODING 110
SWIDTH 459 0
DWIDTH 5 0
BBX 5 4 0 0
BITMAP
6900
8200
8140
5140
ENDCHAR
STARTCHAR o
ENCODING 111
SWIDTH 487 0
DWIDTH 5 0
BBX 5 4 0 0
BITMAP
2A00
4040
8140
6A00
ENDCHAR
STARTCHAR p
ENCODING 112
SWIDTH 520 0
DWIDTH 5 0
BBX 5 8 0 -4
BITMAP
1500
5180
9080
9A40
9000
5000
2000
1000
ENDCHAR
STARTCHAR q
ENCODING 113
SWIDTH 412 0
DWIDTH 4 0
BBX 4 8 0 -3
BITMAP
29
42
42
82
29
02
02
02
ENDCHAR
STARTCHAR r
ENCODING 114
SWIDTH 346 0
DWIDTH 3 0
BBX 3 5 0 0
BITMAP
14
84
80
40
10
ENDCHAR
STARTCHAR s
ENCODING 115
SWIDTH 514 0
DWIDTH 5 0
BBX 5 5 0 0
BITMAP
1400
8100
1500
0080
6A40
ENDCHAR
STARTCHAR t
ENCODING 116
SWIDTH 328 0
DWIDTH 3 0
BBX 3 6 0 0
BITMAP
20
20
78
20
20
10
ENDCHAR
STARTCHAR u
ENCODING 117
SWIDTH 501 0
DWIDTH 5 0
BBX 5 4 0 0
BITMAP
8100
8140
4240
2980
ENDCHAR
STARTCHAR v
ENCODING 118
SWIDTH 389 0
DWIDTH 4 0
BBX 4 4 0 0
BITMAP
41
55
28
18
ENDCHAR
STARTCHAR w
ENCODING 119
SWIDTH 656 0
DWIDTH 7 0
BBX 7 4 0 0
BITMAP
8010
8210
8214
29A0
ENDCHAR
STARTCHAR x
ENCODING 120
SWIDTH 448 0
DWIDTH 4 0
BBX 4 5 0 -1
BITMAP
41
69
28
46
01
ENDCHAR
STARTCHAR y
ENCODING 121
SWIDTH 487 0
DWIDTH 5 0
BBX 5 9 0 -5
BITMAP
4040
8040
5180
1980
0040
0040
0080
5140
1A00
ENDCHAR
STARTCHAR z
ENCODING 122
SWIDTH 459 0
DWIDTH 5 0
BBX 4 5 0 0
BITMAP
59
05
69
20
3A
ENDCHAR
STARTCHAR braceleft
ENCODING 123
SWIDTH 393 0
DWIDTH 4 0
BBX 4 10 0 -1
BITMAP
15
90
40
50
2C
55
08
20
50
29
ENDCHAR
STARTCHAR bar
ENCODING 124
SWIDTH 149 0
DWIDTH 2 0
BBX 2 6 0 0
BITMAP
40
40
40
50
50
50
ENDCHAR
STARTCHAR braceright
ENCODING 125
SWIDTH 440 0
DWIDTH 4 0
BBX 4 13 0 -3
BITMAP
54
45
06
18
20
29
20
08
01
01
01
96
14
ENDCHAR
STARTCHAR asciitilde
ENCODING 126
SWIDTH 402 0
DWIDTH 4 0
BBX 4 2 0 4
BITMAP
11
58
ENDCHAR
STARTCHAR nonbreakingspace
ENCODING 160
SWIDTH 375 0
DWIDTH 4 0
BBX 1 1 0 0
BITMAP
00
ENDCHAR
STARTCHAR exclamdown
ENCODING 161
SWIDTH 149 0
DWIDTH 2 0
BBX 1 7 0 0
BITMAP
80
00
40
80
40
40
40
ENDCHAR
STARTCHAR cent
ENCODING 162
SWIDTH 449 0
DWIDTH 5 0
BBX 4 6 0 -1
BITMAP
18
59
88
88
69
04
ENDCHAR
STARTCHAR sterling
ENCODING 163
SWIDTH 758 0
DWIDTH 8 0
BBX 7 8 0 0
BITMAP
0010
0098
0140
0690
1600
0100
5500
B980
ENDCHAR
STARTCHAR currency
ENCODING 164
SWIDTH 618 0
DWIDTH 6 0
BBX 6 5 0 0
BITMAP
6A90
2050
1050
2580
1040
ENDCHAR
STARTCHAR yen
ENCODING 165
SWIDTH 389 0
DWIDTH 4 0
BBX 4 8 0 0
BITMAP
40
52
15
18
58
18
68
14
ENDCHAR
STARTCHAR brokenbar
ENCODING 166
SWIDTH 117 0
DWIDTH 1 0
BBX 1 6 0 0
BITMAP
40
80
40
80
80
40
ENDCHAR
STARTCHAR section
ENCODING 167
SWIDTH 514 0
DWIDTH 5 0
BBX 5 7 0 0
BITMAP
1900
5140
2940
8080
6A80
0080
2A40
ENDCHAR
STARTCHAR dieresis
ENCODING 168
SWIDTH 397 0
DWIDTH 4 0
BBX 2 1 1 4
BITMAP
50
ENDCHAR
STARTCHAR copyright
ENCODING 169
SWIDTH 667 0
DWIDTH 7 0
BBX 7 6 0 0
BITMAP
0540
1690
4450
5404
5954
2A90
ENDCHAR
STARTCHAR ordfeminine
ENCODING 170
SWIDTH 266 0
DWIDTH 3 0
BBX 3 3 0 2
BITMAP
10
54
54
ENDCHAR
STARTCHAR guillemotleft
ENCODING 171
SWIDTH 755 0
DWIDTH 8 0
BBX 7 5 0 0
BITMAP
0004
0290
1A40
96A0
6A04
ENDCHAR
STARTCHAR logicalnot
ENCODING 172
SWIDTH 369 0
DWIDTH 4 0
BBX 4 2 0 2
BITMAP
69
01
ENDCHAR
STARTCHAR hyphen_
ENCODING 173
SWIDTH 375 0
DWIDTH 4 0
BBX 3 2 0 2
BITMAP
04
54
ENDCHAR
STARTCHAR registered
ENCODING 174
SWIDTH 708 0
DWIDTH 7 0
BBX 7 6 0 0
BITMAP
1A40
25A0
5494
4A04
6554
1A90
ENDCHAR
STARTCHAR macron
ENCODING 175
SWIDTH 287 0
DWIDTH 3 0
BBX 3 2 0 4
BITMAP
14
54
ENDCHAR
STARTCHAR degree
ENCODING 176
SWIDTH 254 0
DWIDTH 3 0
BBX 2 3 0 3
BITMAP
50
50
50
ENDCHAR
STARTCHAR plusminus
ENCODING 177
SWIDTH 459 0
DWIDTH 5 0
BBX 5 5 0 0
BITMAP
1000
1800
6E40
0800
6500
ENDCHAR
STARTCHAR twosuperior
ENCODING 178
SWIDTH 296 0
DWIDTH 3 0
BBX 3 3 0 2
BITMAP
14
04
A4
ENDCHAR
STARTCHAR threesuperior
ENCODING 179
SWIDTH 204 0
DWIDTH 2 0
BBX 2 4 0 3
BITMAP
40
50
50
50
ENDCHAR
STARTCHAR acute
ENCODING 180
SWIDTH 180 0
DWIDTH 2 0
BBX 2 2 0 4
BITMAP
10
80
ENDCHAR
STARTCHAR mu
ENCODING 181
SWIDTH 501 0
DWIDTH 5 0
BBX 5 6 0 -1
BITMAP
4000
8140
8140
9240
9880
4000
ENDCHAR
STARTCHAR paragraph
ENCODING 182
SWIDTH 413 0
DWIDTH 4 0
BBX 4 5 0 0
BITMAP
7E
BA
5A
0A
0A
ENDCHAR
STARTCHAR periodcentered
ENCODING 183
SWIDTH 212 0
DWIDTH 2 0
BBX 2 1 0 2
BITMAP
60
ENDCHAR
STARTCHAR cedilla
ENCODING 184
SWIDTH 445 0
DWIDTH 4 0
BBX 3 3 1 -3
BITMAP
50
18
68
ENDCHAR
STARTCHAR onesuperior
ENCODING 185
SWIDTH 197 0
DWIDTH 2 0
BBX 2 4 0 2
BITMAP
10
60
50
10
ENDCHAR
STARTCHAR ordmasculine
ENCODING 186
SWIDTH 254 0
DWIDTH 3 0
BBX 2 3 0 3
BITMAP
50
50
50
ENDCHAR
STARTCHAR guillemotright
ENCODING 187
SWIDTH 659 0
DWIDTH 7 0
BBX 6 5 0 0
BITMAP
4500
2AA0
0220
1980
5500
ENDCHAR
STARTCHAR onequarter
ENCODING 188
SWIDTH 626 0
DWIDTH 6 0
BBX 6 8 0 0
BITMAP
0100
1100
2400
5400
1500
0510
11A0
1010
ENDCHAR
STARTCHAR onehalf
ENCODING 189
SWIDTH 566 0
DWIDTH 6 0
BBX 5 8 0 0
BITMAP
0100
1100
2500
6400
5540
1440
1440
1680
ENDCHAR
STARTCHAR threequarters
ENCODING 190
SWIDTH 566 0
DWIDTH 6 0
BBX 6 8 0 -1
BITMAP
5100
1100
1500
5500
0510
0590
1410
1000
ENDCHAR
STARTCHAR questiondown
ENCODING 191
SWIDTH 272 0
DWIDTH 3 0
BBX 3 8 0 -1
BITMAP
40
00
50
20
60
80
90
14
ENDCHAR
STARTCHAR Agrave
ENCODING 192
SWIDTH 562 0
DWIDTH 6 0
BBX 6 10 0 0
BITMAP
0400
0500
1500
1140
4080
4040
9590
8150
4050
5050
ENDCHAR
STARTCHAR Aacute
ENCODING 193
SWIDTH 562 0
DWIDTH 6 0
BBX 6 10 0 0
BITMAP
0400
1400
1500
1140
4080
4040
9590
8150
4050
5050
ENDCHAR
STARTCHAR Acircumflex
ENCODING 194
SWIDTH 562 0
DWIDTH 6 0
BBX 6 9 0 0
BITMAP
0D00
2A00
1140
4080
4040
9590
8150
4050
5050
ENDCHAR
STARTCHAR Atilde
ENCODING 195
SWIDTH 562 0
DWIDTH 6 0
BBX 6 10 0 0
BITMAP
1000
1500
1500
1140
4080
4040
9590
8150
4050
5050
ENDCHAR
STARTCHAR Adieresis
ENCODING 196
SWIDTH 562 0
DWIDTH 6 0
BBX 6 9 0 0
BITMAP
1600
1500
1140
4080
4040
9590
8150
4050
5050
ENDCHAR
STARTCHAR Aring
ENCODING 197
SWIDTH 562 0
DWIDTH 6 0
BBX 6 9 0 0
BITMAP
1500
1900
1140
4080
4040
9590
8150
4050
5050
ENDCHAR
STARTCHAR AE
ENCODING 198
SWIDTH 960 0
DWIDTH 10 0
BBX 9 8 0 0
BITMAP
150000
115400
40A540
406000
95A640
815000
405000
506A80
ENDCHAR
STARTCHAR Ccedilla
ENCODING 199
SWIDTH 515 0
DWIDTH 5 0
BBX 5 10 0 -3
BITMAP
0500
1500
5000
4000
4000
8000
2A40
1000
0500
1500
ENDCHAR
STARTCHAR Egrave
ENCODING 200
SWIDTH 524 0
DWIDTH 5 0
BBX 5 8 0 0
BITMAP
0400
0500
9540
8000
9600
8000
8000
6A40
ENDCHAR
STARTCHAR Eacute
ENCODING 201
SWIDTH 524 0
DWIDTH 5 0
BBX 5 8 0 0
BITMAP
0400
1800
9540
8000
9600
8000
8000
6A40
ENDCHAR
STARTCHAR Ecircumflex
ENCODING 202
SWIDTH 524 0
DWIDTH 5 0
BBX 5 9 0 0
BITMAP
0900
1100
0000
9540
8000
9600
8000
8000
6A40
ENDCHAR
STARTCHAR Edieresis
ENCODING 203
SWIDTH 524 0
DWIDTH 5 0
BBX 5 7 0 0
BITMAP
2600
9540
8000
9600
8000
8000
6A40
ENDCHAR
STARTCHAR Igrave
ENCODING 204
SWIDTH 167 0
DWIDTH 2 0
BBX 2 8 0 0
BITMAP
40
40
40
80
40
50
50
10
ENDCHAR
STARTCHAR Iacute
ENCODING 205
SWIDTH 167 0
DWIDTH 2 0
BBX 2 7 0 0
BITMAP
80
40
80
40
50
50
10
ENDCHAR
STARTCHAR Icircumflex
ENCODING 206
SWIDTH 167 0
DWIDTH 2 0
BBX 3 9 -1 0
BITMAP
28
54
00
10
20
10
14
14
04
ENDCHAR
STARTCHAR Idieresis
ENCODING 207
SWIDTH 167 0
DWIDTH 2 0
BBX 3 7 -1 0
BITMAP
94
10
20
10
14
14
04
ENDCHAR
STARTCHAR Eth
ENCODING 208
SWIDTH 741 0
DWIDTH 7 0
BBX 7 7 0 0
BITMAP
1400
5690
0214
0698
0204
0208
06A4
ENDCHAR
STARTCHAR Ntilde
ENCODING 209
SWIDTH 609 0
DWIDTH 6 0
BBX 6 8 0 0
BITMAP
0440
1240
0000
8080
9050
A020
9820
8690
ENDCHAR
STARTCHAR Ograve
ENCODING 210
SWIDTH 609 0
DWIDTH 6 0
BBX 6 8 0 0
BITMAP
0400
0100
0000
2900
4180
4020
5020
2A80
ENDCHAR
STARTCHAR Oacute
ENCODING 211
SWIDTH 609 0
DWIDTH 6 0
BBX 6 8 0 0
BITMAP
0100
0800
0000
2900
4180
4020
5020
2A80
ENDCHAR
STARTCHAR Ocircumflex
ENCODING 212
SWIDTH 609 0
DWIDTH 6 0
BBX 6 7 0 0
BITMAP
1C00
1100
2900
4180
4020
5020
2A80
ENDCHAR
STARTCHAR Otilde
ENCODING 213
SWIDTH 609 0
DWIDTH 6 0
BBX 6 7 0 0
BITMAP
1000
1500
2900
4180
4020
5020
2A80
ENDCHAR
STARTCHAR Odieresis
ENCODING 214
SWIDTH 609 0
DWIDTH 6 0
BBX 6 7 0 0
BITMAP
0500
0000
2900
4180
4020
5020
2A80
ENDCHAR
STARTCHAR multiply
ENCODING 215
SWIDTH 448 0
DWIDTH 4 0
BBX 2 2 1 1
BITMAP
A0
A0
ENDCHAR
STARTCHAR Oslash
ENCODING 216
SWIDTH 609 0
DWIDTH 6 0
BBX 6 7 0 -1
BITMAP
0100
2A00
4680
4820
5820
2A80
2000
ENDCHAR
STARTCHAR Ugrave
ENCODING 217
SWIDTH 571 0
DWIDTH 6 0
BBX 6 8 0 0
BITMAP
0400
0100
4000
4080
4080
4080
50D0
2A10
ENDCHAR
STARTCHAR Uacute
ENCODING 218
SWIDTH 571 0
DWIDTH 6 0
BBX 6 7 0 0
BITMAP
0800
4000
4080
4080
4080
50D0
2A10
ENDCHAR
STARTCHAR Ucircumflex
ENCODING 219
SWIDTH 571 0
DWIDTH 6 0
BBX 6 9 0 0
BITMAP
0A00
1500
0000
4000
4080
4080
4080
50D0
2A10
ENDCHAR
STARTCHAR Udieresis
ENCODING 220
SWIDTH 571 0
DWIDTH 6 0
BBX 6 7 0 0
BITMAP
1600
4000
4080
4080
4080
50D0
2A10
ENDCHAR
STARTCHAR Yacute
ENCODING 221
SWIDTH 403 0
DWIDTH 4 0
BBX 4 8 0 0
BITMAP
08
00
81
26
09
08
08
08
ENDCHAR
STARTCHAR Thorn
ENCODING 222
SWIDTH 497 0
DWIDTH 5 0
BBX 5 7 0 -1
BITMAP
4000
4000
5400
5640
5080
6A40
5000
ENDCHAR
STARTCHAR germandbls
ENCODING 223
SWIDTH 590 0
DWIDTH 6 0
BBX 6 8 0 -1
BITMAP
6800
8200
8900
4640
5050
1020
1640
5000
ENDCHAR
STARTCHAR agrave
ENCODING 224
SWIDTH 505 0
DWIDTH 5 0
BBX 5 7 0 0
BITMAP
0400
0400
1900
0200
6680
8080
6A40
ENDCHAR
STARTCHAR aacute
ENCODING 225
SWIDTH 505 0
DWIDTH 5 0
BBX 5 7 0 0
BITMAP
0400
1400
1900
0200
6680
8080
6A40
ENDCHAR
STARTCHAR acircumflex
ENCODING 226
SWIDTH 505 0
DWIDTH 5 0
BBX 5 7 0 0
BITMAP
0D00
1100
1900
0200
6680
8080
6A40
ENDCHAR
STARTCHAR atilde
ENCODING 227
SWIDTH 505 0
DWIDTH 5 0
BBX 5 8 0 0
BITMAP
1000
5500
0000
1900
0200
6680
8080
6A40
ENDCHAR
STARTCHAR adieresis
ENCODING 228
SWIDTH 505 0
DWIDTH 5 0
BBX 5 6 0 0
BITMAP
1600
1900
0200
6680
8080
6A40
ENDCHAR
STARTCHAR aring
ENCODING 229
SWIDTH 505 0
DWIDTH 5 0
BBX 5 7 0 0
BITMAP
0400
1500
1900
0200
6680
8080
6A40
ENDCHAR
STARTCHAR ae
ENCODING 230
SWIDTH 881 0
DWIDTH 9 0
BBX 9 6 0 -1
BITMAP
192900
028100
669800
808000
6AA540
000400
ENDCHAR
STARTCHAR ccedilla
ENCODING 231
SWIDTH 449 0
DWIDTH 5 0
BBX 4 8 0 -3
BITMAP
14
51
80
80
29
10
05
15
ENDCHAR
STARTCHAR egrave
ENCODING 232
SWIDTH 515 0
DWIDTH 5 0
BBX 5 7 0 0
BITMAP
1000
0400
2500
8200
9800
4000
2A40
ENDCHAR
STARTCHAR eacute
ENCODING 233
SWIDTH 515 0
DWIDTH 5 0
BBX 5 8 0 0
BITMAP
0400
1400
0000
2500
8200
9800
4000
2A40
ENDCHAR
STARTCHAR ecircumflex
ENCODING 234
SWIDTH 515 0
DWIDTH 5 0
BBX 5 7 0 0
BITMAP
0900
1500
2500
8200
9800
4000
2A40
ENDCHAR
STARTCHAR edieresis
ENCODING 235
SWIDTH 515 0
DWIDTH 5 0
BBX 5 6 0 0
BITMAP
2500
2500
8200
9800
4000
2A40
ENDCHAR
STARTCHAR igrave
ENCODING 236
SWIDTH 174 0
DWIDTH 2 0
BBX 2 6 0 0
BITMAP
50
00
40
50
50
10
ENDCHAR
STARTCHAR iacute
ENCODING 237
SWIDTH 174 0
DWIDTH 2 0
BBX 2 6 0 0
BITMAP
80
40
40
50
50
10
ENDCHAR
STARTCHAR icircumflex
ENCODING 238
SWIDTH 174 0
DWIDTH 2 0
BBX 3 7 -1 0
BITMAP
28
54
00
10
14
14
04
ENDCHAR
STARTCHAR idieresis
ENCODING 239
SWIDTH 174 0
DWIDTH 2 0
BBX 3 6 -1 0
BITMAP
58
00
10
14
14
04
ENDCHAR
STARTCHAR eth
ENCODING 240
SWIDTH 407 0
DWIDTH 4 0
BBX 4 5 0 0
BITMAP
5A
15
56
81
69
ENDCHAR
STARTCHAR ntilde
ENCODING 241
SWIDTH 459 0
DWIDTH 5 0
BBX 5 7 0 0
BITMAP
1100
4900
0000
6900
8200
8140
5140
ENDCHAR
STARTCHAR ograve
ENCODING 242
SWIDTH 487 0
DWIDTH 5 0
BBX 5 6 0 0
BITMAP
0400
0400
2A00
4040
8140
6A00
ENDCHAR
STARTCHAR oacute
ENCODING 243
SWIDTH 487 0
DWIDTH 5 0
BBX 5 7 0 0
BITMAP
0400
1400
0000
2A00
4040
8140
6A00
ENDCHAR
STARTCHAR ocircumflex
ENCODING 244
SWIDTH 487 0
DWIDTH 5 0
BBX 5 6 0 0
BITMAP
0D00
1100
2A00
4040
8140
6A00
ENDCHAR
STARTCHAR otilde
ENCODING 245
SWIDTH 487 0
DWIDTH 5 0
BBX 5 6 0 0
BITMAP
1000
1500
2A00
4040
8140
6A00
ENDCHAR
STARTCHAR odieresis
ENCODING 246
SWIDTH 487 0
DWIDTH 5 0
BBX 5 5 0 0
BITMAP
2500
2A00
4040
8140
6A00
ENDCHAR
STARTCHAR divide
ENCODING 247
SWIDTH 335 0
DWIDTH 3 0
BBX 3 1 0 2
BITMAP
64
ENDCHAR
STARTCHAR oslash
ENCODING 248
SWIDTH 487 0
DWIDTH 5 0
BBX 5 5 0 0
BITMAP
0100
2B00
4880
A540
6A00
ENDCHAR
STARTCHAR ugrave
ENCODING 249
SWIDTH 501 0
DWIDTH 5 0
BBX 5 7 0 0
BITMAP
1000
0400
0000
8100
8140
4240
2980
ENDCHAR
STARTCHAR uacute
ENCODING 250
SWIDTH 501 0
DWIDTH 5 0
BBX 5 7 0 0
BITMAP
0400
1400
0000
8100
8140
4240
2980
ENDCHAR
STARTCHAR ucircumflex
ENCODING 251
SWIDTH 501 0
DWIDTH 5 0
BBX 5 7 0 0
BITMAP
0D00
1100
0000
8100
8140
4240
2980
ENDCHAR
STARTCHAR udieresis
ENCODING 252
SWIDTH 501 0
DWIDTH 5 0
BBX 5 6 0 0
BITMAP
2500
0000
8100
8140
4240
2980
ENDCHAR
STARTCHAR yacute
ENCODING 253
SWIDTH 487 0
DWIDTH 5 0
BBX 5 12 0 -5
BITMAP
0400
1400
0000
4040
8040
5180
1980
0040
0040
0080
5140
1A00
ENDCHAR
STARTCHAR thorn
ENCODING 254
SWIDTH 520 0
DWIDTH 5 0
BBX 5 7 0 -2
BITMAP
4000
5A00
9080
9180
9500
8000
4000
ENDCHAR
STARTCHAR ydieresis
ENCODING 255
SWIDTH 487 0
DWIDTH 5 0
BBX 5 11 0 -5
BITMAP
2500
0000
4040
8040
5180
1980
0040
0040
0080
5140
1A00
ENDCHAR
STARTCHAR Amacron
ENCODING 256
SWIDTH 562 0
DWIDTH 6 0
BBX 6 10 0 0
BITMAP
1500
1400
1500
1140
4080
4040
9590
8150
4050
5050
ENDCHAR
STARTCHAR amacron
ENCODING 257
SWIDTH 505 0
DWIDTH 5 0
BBX 5 7 0 0
BITMAP
1500
1400
1900
0200
6680
8080
6A40
ENDCHAR
STARTCHAR Abreve
ENCODING 258
SWIDTH 562 0
DWIDTH 6 0
BBX 6 9 0 0
BITMAP
0500
1500
1140
4080
4040
9590
8150
4050
5050
ENDCHAR
STARTCHAR abreve
ENCODING 259
SWIDTH 505 0
DWIDTH 5 0
BBX 5 7 0 0
BITMAP
1400
0000
1900
0200
6680
8080
6A40
ENDCHAR
STARTCHAR Aogonek
ENCODING 260
SWIDTH 562 0
DWIDTH 6 0
BBX 6 10 0 -2
BITMAP
1500
1140
4080
4040
9590
8150
4050
5090
0140
0050
ENDCHAR
STARTCHAR aogonek
ENCODING 261
SWIDTH 505 0
DWIDTH 5 0
BBX 5 6 0 -1
BITMAP
1900
0200
6680
8080
6A40
0100
ENDCHAR
STARTCHAR Cacute
ENCODING 262
SWIDTH 515 0
DWIDTH 5 0
BBX 5 9 0 0
BITMAP
0100
0800
0500
1500
5000
4000
4000
8000
2A40
ENDCHAR
STARTCHAR cacute
ENCODING 263
SWIDTH 449 0
DWIDTH 5 0
BBX 4 6 0 0
BITMAP
04
00
25
80
80
69
ENDCHAR
STARTCHAR Ccircumflex
ENCODING 264
SWIDTH 515 0
DWIDTH 5 0
BBX 5 9 0 0
BITMAP
0900
1100
0500
1500
5000
4000
4000
8000
2A40
ENDCHAR
STARTCHAR ccircumflex
ENCODING 265
SWIDTH 449 0
DWIDTH 5 0
BBX 4 7 0 0
BITMAP
1C
11
00
25
80
80
69
ENDCHAR
STARTCHAR Cdotaccent
ENCODING 266
SWIDTH 515 0
DWIDTH 5 0
BBX 5 8 0 0
BITMAP
0400
0500
1500
5000
4000
4000
8000
2A40
ENDCHAR
STARTCHAR cdotaccent
ENCODING 267
SWIDTH 449 0
DWIDTH 5 0
BBX 4 6 0 0
BITMAP
04
04
25
80
80
69
ENDCHAR
STARTCHAR Ccaron
ENCODING 268
SWIDTH 515 0
DWIDTH 5 0
BBX 5 8 0 0
BITMAP
0600
0500
1500
5000
4000
4000
8000
2A40
ENDCHAR
STARTCHAR ccaron
ENCODING 269
SWIDTH 449 0
DWIDTH 5 0
BBX 4 6 0 0
BITMAP
19
00
25
80
80
69
ENDCHAR
STARTCHAR Dcaron
ENCODING 270
SWIDTH 741 0
DWIDTH 7 0
BBX 7 8 0 0
BITMAP
0680
1400
5690
0214
0208
0204
0208
06A4
ENDCHAR
STARTCHAR dcaron
ENCODING 271
SWIDTH 582 0
DWIDTH 6 0
BBX 6 7 0 0
BITMAP
0220
0160
6980
8280
8180
8280
6940
ENDCHAR
STARTCHAR Dcroat
ENCODING 272
SWIDTH 741 0
DWIDTH 7 0
BBX 7 7 0 0
BITMAP
1400
5690
0214
0648
0604
0208
06A4
ENDCHAR
STARTCHAR dcroat
ENCODING 273
SWIDTH 524 0
DWIDTH 5 0
BBX 5 7 0 0
BITMAP
0200
0680
1580
5680
8180
8280
6940
ENDCHAR
STARTCHAR Emacron
ENCODING 274
SWIDTH 524 0
DWIDTH 5 0
BBX 5 8 0 0
BITMAP
1500
1500
9540
8000
9600
8000
8000
6A40
ENDCHAR
STARTCHAR emacron
ENCODING 275
SWIDTH 515 0
DWIDTH 5 0
BBX 5 7 0 0
BITMAP
1500
1500
2500
8200
9800
4000
2A40
ENDCHAR
STARTCHAR Ebreve
ENCODING 276
SWIDTH 524 0
DWIDTH 5 0
BBX 5 8 0 0
BITMAP
1500
0000
9540
8000
9600
8000
8000
6A40
ENDCHAR
STARTCHAR ebreve
ENCODING 277
SWIDTH 515 0
DWIDTH 5 0
BBX 5 7 0 0
BITMAP
0500
0000
2500
8200
9800
4000
2A40
ENDCHAR
STARTCHAR Edotaccent
ENCODING 278
SWIDTH 524 0
DWIDTH 5 0
BBX 5 8 0 0
BITMAP
0400
0400
9540
8000
9600
8000
8000
6A40
ENDCHAR
STARTCHAR edotaccent
ENCODING 279
SWIDTH 515 0
DWIDTH 5 0
BBX 5 7 0 0
BITMAP
0400
0400
2500
8200
9800
4000
2A40
ENDCHAR
STARTCHAR Eogonek
ENCODING 280
SWIDTH 524 0
DWIDTH 5 0
BBX 5 8 0 -2
BITMAP
9540
8000
9600
8000
8000
6A40
0500
0140
ENDCHAR
STARTCHAR eogonek
ENCODING 281
SWIDTH 515 0
DWIDTH 5 0
BBX 5 7 0 -2
BITMAP
2500
8200
9800
4000
2A40
0500
0100
ENDCHAR
STARTCHAR Ecaron
ENCODING 282
SWIDTH 524 0
DWIDTH 5 0
BBX 5 8 0 0
BITMAP
1A00
0400
9540
8000
9600
8000
8000
6A40
ENDCHAR
STARTCHAR ecaron
ENCODING 283
SWIDTH 515 0
DWIDTH 5 0
BBX 5 7 0 0
BITMAP
1900
0000
2500
8200
9800
4000
2A40
ENDCHAR
STARTCHAR Gcircumflex
ENCODING 284
SWIDTH 571 0
DWIDTH 6 0
BBX 6 9 0 -1
BITMAP
0280
0440
0040
0540
2000
4580
4050
2990
0010
ENDCHAR
STARTCHAR gcircumflex
ENCODING 285
SWIDTH 366 0
DWIDTH 4 0
BBX 6 12 -2 -5
BITMAP
0280
0540
0000
0280
0450
0850
06A0
0020
0020
4020
2410
0A80
ENDCHAR
STARTCHAR Gbreve
ENCODING 286
SWIDTH 571 0
DWIDTH 6 0
BBX 6 8 0 -1
BITMAP
0500
0040
0540
2000
4580
4050
2990
0010
ENDCHAR
STARTCHAR gbreve
ENCODING 287
SWIDTH 366 0
DWIDTH 4 0
BBX 6 11 -2 -5
BITMAP
0140
0000
0280
0450
0850
06A0
0020
0020
4020
2410
0A80
ENDCHAR
STARTCHAR Gdotaccent
ENCODING 288
SWIDTH 571 0
DWIDTH 6 0
BBX 6 8 0 -1
BITMAP
0100
0140
0540
2000
4580
4050
2990
0010
ENDCHAR
STARTCHAR gdotaccent
ENCODING 289
SWIDTH 366 0
DWIDTH 4 0
BBX 6 11 -2 -5
BITMAP
0100
0000
0280
0450
0850
06A0
0020
0020
4020
2410
0A80
ENDCHAR
STARTCHAR Gcommaaccent
ENCODING 290
SWIDTH 571 0
DWIDTH 6 0
BBX 6 9 0 -3
BITMAP
0040
0540
2000
4580
4050
2990
0010
0400
0400
ENDCHAR
STARTCHAR gcommaaccent
ENCODING 291
SWIDTH 366 0
DWIDTH 4 0
BBX 6 14 -2 -5
BITMAP
0100
0100
0000
0000
0000
0280
0450
0850
06A0
0020
0020
4020
2410
0A80
ENDCHAR
STARTCHAR Hcircumflex
ENCODING 292
SWIDTH 524 0
DWIDTH 5 0
BBX 5 9 0 0
BITMAP
0900
1100
4040
4040
8080
4680
A480
5080
1080
ENDCHAR
STARTCHAR hcircumflex
ENCODING 293
SWIDTH 427 0
DWIDTH 4 0
BBX 4 8 0 0
BITMAP
1C
51
80
94
95
42
52
52
ENDCHAR
STARTCHAR hbar
ENCODING 295
SWIDTH 427 0
DWIDTH 4 0
BBX 5 7 -1 0
BITMAP
1000
6400
2500
2540
1080
1480
1480
ENDCHAR
STARTCHAR Itilde
ENCODING 296
SWIDTH 167 0
DWIDTH 2 0
BBX 4 8 -1 0
BITMAP
51
58
10
20
10
14
14
04
ENDCHAR
STARTCHAR itilde
ENCODING 297
SWIDTH 174 0
DWIDTH 2 0
BBX 4 7 -1 0
BITMAP
11
45
00
10
14
14
04
ENDCHAR
STARTCHAR imacron
ENCODING 299
SWIDTH 174 0
DWIDTH 2 0
BBX 3 6 -1 0
BITMAP
68
00
10
14
14
04
ENDCHAR
STARTCHAR Ibreve
ENCODING 300
SWIDTH 167 0
DWIDTH 2 0
BBX 2 8 0 0
BITMAP
50
00
40
80
40
50
50
10
ENDCHAR
STARTCHAR ibreve
ENCODING 301
SWIDTH 174 0
DWIDTH 2 0
BBX 2 6 0 0
BITMAP
50
00
40
50
50
10
ENDCHAR
STARTCHAR Iogonek
ENCODING 302
SWIDTH 167 0
DWIDTH 2 0
BBX 2 8 0 -2
BITMAP
40
80
40
50
50
50
80
50
ENDCHAR
STARTCHAR iogonek
ENCODING 303
SWIDTH 174 0
DWIDTH 2 0
BBX 2 8 0 -2
BITMAP
40
00
40
50
50
60
80
50
ENDCHAR
STARTCHAR Idotaccent
ENCODING 304
SWIDTH 167 0
DWIDTH 2 0
BBX 2 8 0 0
BITMAP
40
40
40
80
40
50
50
10
ENDCHAR
STARTCHAR dotlessi
ENCODING 305
SWIDTH 174 0
DWIDTH 2 0
BBX 2 4 0 0
BITMAP
40
50
50
10
ENDCHAR
STARTCHAR Jcircumflex
ENCODING 308
SWIDTH 439 0
DWIDTH 4 0
BBX 5 9 0 0
BITMAP
0740
0440
0100
0200
0200
4100
4140
1100
0A00
ENDCHAR
STARTCHAR jcircumflex
ENCODING 309
SWIDTH 200 0
DWIDTH 2 0
BBX 4 12 -1 -5
BITMAP
18
15
00
04
08
08
08
08
45
85
28
04
ENDCHAR
STARTCHAR Kcommaaccent
ENCODING 310
SWIDTH 468 0
DWIDTH 5 0
BBX 5 9 0 -3
BITMAP
4400
5400
9000
A000
9800
4240
0000
0800
0800
ENDCHAR
STARTCHAR kcommaaccent
ENCODING 311
SWIDTH 403 0
DWIDTH 4 0
BBX 4 9 0 -3
BITMAP
40
84
84
60
60
5A
00
14
14
ENDCHAR
STARTCHAR Lacute
ENCODING 313
SWIDTH 346 0
DWIDTH 3 0
BBX 3 8 0 0
BITMAP
04
14
00
80
80
80
80
68
ENDCHAR
STARTCHAR lacute
ENCODING 314
SWIDTH 120 0
DWIDTH 1 0
BBX 1 7 0 0
BITMAP
80
80
80
80
80
80
40
ENDCHAR
STARTCHAR Lcommaaccent
ENCODING 315
SWIDTH 346 0
DWIDTH 3 0
BBX 3 8 0 -3
BITMAP
80
80
80
80
68
00
20
20
ENDCHAR
STARTCHAR lcommaaccent
ENCODING 316
SWIDTH 120 0
DWIDTH 1 0
BBX 1 9 0 -3
BITMAP
80
80
80
80
80
40
00
80
80
ENDCHAR
STARTCHAR Lcaron
ENCODING 317
SWIDTH 346 0
DWIDTH 3 0
BBX 3 7 0 0
BITMAP
14
04
80
80
80
80
68
ENDCHAR
STARTCHAR lcaron
ENCODING 318
SWIDTH 222 0
DWIDTH 2 0
BBX 2 7 0 0
BITMAP
20
90
80
80
80
80
40
ENDCHAR
STARTCHAR Ldot
ENCODING 319
SWIDTH 346 0
DWIDTH 3 0
BBX 3 5 0 0
BITMAP
80
80
A4
80
68
ENDCHAR
STARTCHAR ldot
ENCODING 320
SWIDTH 333 0
DWIDTH 3 0
BBX 3 6 0 0
BITMAP
80
80
80
98
80
40
ENDCHAR
STARTCHAR Lslash
ENCODING 321
SWIDTH 346 0
DWIDTH 3 0
BBX 4 5 0 0
BITMAP
10
50
60
90
29
ENDCHAR
STARTCHAR lslash
ENCODING 322
SWIDTH 120 0
DWIDTH 1 0
BBX 3 6 -1 0
BITMAP
10
20
24
60
20
10
ENDCHAR
STARTCHAR Nacute
ENCODING 323
SWIDTH 609 0
DWIDTH 6 0
BBX 6 8 0 0
BITMAP
0100
0800
0000
8080
9050
A020
9820
8690
ENDCHAR
STARTCHAR nacute
ENCODING 324
SWIDTH 459 0
DWIDTH 5 0
BBX 5 7 0 0
BITMAP
0400
1400
0000
6900
8200
8140
5140
ENDCHAR
STARTCHAR Ncommaaccent
ENCODING 325
SWIDTH 609 0
DWIDTH 6 0
BBX 6 8 0 -3
BITMAP
8080
9050
A020
9820
8690
0000
0500
0500
ENDCHAR
STARTCHAR ncommaaccent
ENCODING 326
SWIDTH 459 0
DWIDTH 5 0
BBX 5 7 0 -3
BITMAP
6900
8200
8140
5140
0000
0800
0800
ENDCHAR
STARTCHAR Ncaron
ENCODING 327
SWIDTH 609 0
DWIDTH 6 0
BBX 6 8 0 0
BITMAP
0600
0000
0000
8080
9050
A020
9820
8690
ENDCHAR
STARTCHAR ncaron
ENCODING 328
SWIDTH 459 0
DWIDTH 5 0
BBX 5 6 0 0
BITMAP
1900
0000
6900
8200
8140
5140
ENDCHAR
STARTCHAR napostrophe
ENCODING 329
SWIDTH 459 0
DWIDTH 5 0
BBX 5 7 0 0
BITMAP
2000
2000
0000
6900
8200
8140
5140
ENDCHAR
STARTCHAR Omacron
ENCODING 332
SWIDTH 609 0
DWIDTH 6 0
BBX 6 8 0 0
BITMAP
0500
0500
0000
2900
4180
4020
5020
2A80
ENDCHAR
STARTCHAR omacron
ENCODING 333
SWIDTH 487 0
DWIDTH 5 0
BBX 5 6 0 0
BITMAP
1500
1400
2A00
4040
8140
6A00
ENDCHAR
STARTCHAR Obreve
ENCODING 334
SWIDTH 609 0
DWIDTH 6 0
BBX 6 7 0 0
BITMAP
0500
0000
2900
4180
4020
5020
2A80
ENDCHAR
STARTCHAR obreve
ENCODING 335
SWIDTH 487 0
DWIDTH 5 0
BBX 5 6 0 0
BITMAP
1800
0000
2A00
4040
8140
6A00
ENDCHAR
STARTCHAR Ohungarumlaut
ENCODING 336
SWIDTH 609 0
DWIDTH 6 0
BBX 6 8 0 0
BITMAP
0500
0500
0000
2900
4180
4020
5020
2A80
ENDCHAR
STARTCHAR ohungarumlaut
ENCODING 337
SWIDTH 487 0
DWIDTH 5 0
BBX 5 6 0 0
BITMAP
1400
1400
2A00
4040
8140
6A00
ENDCHAR
STARTCHAR OE
ENCODING 338
SWIDTH 848 0
DWIDTH 8 0
BBX 8 5 0 0
BITMAP
2995
4240
4195
5140
2AAA
ENDCHAR
STARTCHAR oe
ENCODING 339
SWIDTH 875 0
DWIDTH 9 0
BBX 8 6 0 -1
BITMAP
0018
2A85
4098
8190
6A65
0005
ENDCHAR
STARTCHAR Racute
ENCODING 340
SWIDTH 579 0
DWIDTH 6 0
BBX 6 10 0 -1
BITMAP
0100
0500
1400
9680
1050
2A40
2400
1500
0540
0010
ENDCHAR
STARTCHAR racute
ENCODING 341
SWIDTH 346 0
DWIDTH 3 0
BBX 3 7 0 0
BITMAP
04
20
14
84
80
40
10
ENDCHAR
STARTCHAR Rcommaaccent
ENCODING 342
SWIDTH 579 0
DWIDTH 6 0
BBX 6 10 0 -3
BITMAP
1400
9680
1050
2A40
2400
1500
0540
0010
0500
0500
ENDCHAR
STARTCHAR rcommaaccent
ENCODING 343
SWIDTH 346 0
DWIDTH 3 0
BBX 3 8 0 -3
BITMAP
14
84
80
40
10
00
20
20
ENDCHAR
STARTCHAR Rcaron
ENCODING 344
SWIDTH 579 0
DWIDTH 6 0
BBX 6 9 0 -1
BITMAP
0A00
1400
9680
1050
2A40
2400
1500
0540
0010
ENDCHAR
STARTCHAR rcaron
ENCODING 345
SWIDTH 346 0
DWIDTH 3 0
BBX 3 6 0 0
BITMAP
28
14
84
80
40
10
ENDCHAR
STARTCHAR Sacute
ENCODING 346
SWIDTH 627 0
DWIDTH 6 0
BBX 6 9 0 0
BITMAP
0100
0500
0000
1580
2000
0900
0190
8020
1990
ENDCHAR
STARTCHAR sacute
ENCODING 347
SWIDTH 514 0
DWIDTH 5 0
BBX 5 7 0 0
BITMAP
0100
0800
1400
8100
1500
0080
6A40
ENDCHAR
STARTCHAR Scircumflex
ENCODING 348
SWIDTH 627 0
DWIDTH 6 0
BBX 6 9 0 0
BITMAP
0700
0540
0000
1580
2000
0900
0190
8020
1990
ENDCHAR
STARTCHAR scircumflex
ENCODING 349
SWIDTH 514 0
DWIDTH 5 0
BBX 5 7 0 0
BITMAP
0900
1100
1400
8100
1500
0080
6A40
ENDCHAR
STARTCHAR Scedilla
ENCODING 350
SWIDTH 627 0
DWIDTH 6 0
BBX 6 9 0 -3
BITMAP
1580
2000
0900
0190
8020
1990
0400
0540
0940
ENDCHAR
STARTCHAR scedilla
ENCODING 351
SWIDTH 514 0
DWIDTH 5 0
BBX 5 8 0 -3
BITMAP
1400
8100
1500
0080
6A40
1000
0500
1500
ENDCHAR
STARTCHAR Scaron
ENCODING 352
SWIDTH 627 0
DWIDTH 6 0
BBX 6 8 0 0
BITMAP
0640
0000
1580
2000
0900
0190
8020
1990
ENDCHAR
STARTCHAR scaron
ENCODING 353
SWIDTH 514 0
DWIDTH 5 0
BBX 5 6 0 0
BITMAP
1900
1400
8100
1500
0080
6A40
ENDCHAR
STARTCHAR Tcommaaccent
ENCODING 354
SWIDTH 581 0
DWIDTH 6 0
BBX 7 9 0 -3
BITMAP
5AA4
0200
0200
0200
0200
0140
0000
0140
0140
ENDCHAR
STARTCHAR tcommaaccent
ENCODING 355
SWIDTH 328 0
DWIDTH 3 0
BBX 3 9 0 -3
BITMAP
20
20
78
20
20
10
00
20
20
ENDCHAR
STARTCHAR Tcaron
ENCODING 356
SWIDTH 581 0
DWIDTH 6 0
BBX 7 8 0 0
BITMAP
0A00
0000
5AA4
0200
0200
0200
0200
0140
ENDCHAR
STARTCHAR tcaron
ENCODING 357
SWIDTH 431 0
DWIDTH 4 0
BBX 4 7 0 0
BITMAP
01
21
20
78
20
20
10
ENDCHAR
STARTCHAR Utilde
ENCODING 360
SWIDTH 571 0
DWIDTH 6 0
BBX 6 8 0 0
BITMAP
1440
1600
4000
4080
4080
4080
50D0
2A10
ENDCHAR
STARTCHAR utilde
ENCODING 361
SWIDTH 501 0
DWIDTH 5 0
BBX 5 7 0 0
BITMAP
1000
1500
0000
8100
8140
4240
2980
ENDCHAR
STARTCHAR Umacron
ENCODING 362
SWIDTH 571 0
DWIDTH 6 0
BBX 6 8 0 0
BITMAP
0500
0500
4000
4080
4080
4080
50D0
2A10
ENDCHAR
STARTCHAR umacron
ENCODING 363
SWIDTH 501 0
DWIDTH 5 0
BBX 5 7 0 0
BITMAP
1400
1400
0000
8100
8140
4240
2980
ENDCHAR
STARTCHAR Ubreve
ENCODING 364
SWIDTH 571 0
DWIDTH 6 0
BBX 6 7 0 0
BITMAP
0500
4000
4080
4080
4080
50D0
2A10
ENDCHAR
STARTCHAR ubreve
ENCODING 365
SWIDTH 501 0
DWIDTH 5 0
BBX 5 6 0 0
BITMAP
1800
0000
8100
8140
4240
2980
ENDCHAR
STARTCHAR Uring
ENCODING 366
SWIDTH 571 0
DWIDTH 6 0
BBX 6 8 0 0
BITMAP
0500
0500
4000
4080
4080
4080
50D0
2A10
ENDCHAR
STARTCHAR uring
ENCODING 367
SWIDTH 501 0
DWIDTH 5 0
BBX 5 6 0 0
BITMAP
0400
1400
8100
8140
4240
2980
ENDCHAR
STARTCHAR Uhungarumlaut
ENCODING 368
SWIDTH 571 0
DWIDTH 6 0
BBX 6 8 0 0
BITMAP
0500
1500
4000
4080
4080
4080
50D0
2A10
ENDCHAR
STARTCHAR uhungarumlaut
ENCODING 369
SWIDTH 501 0
DWIDTH 5 0
BBX 5 7 0 0
BITMAP
0500
1500
0000
8100
8140
4240
2980
ENDCHAR
STARTCHAR Uogonek
ENCODING 370
SWIDTH 571 0
DWIDTH 6 0
BBX 6 7 0 -2
BITMAP
4040
4080
4080
5090
25A0
0480
0050
ENDCHAR
STARTCHAR uogonek
ENCODING 371
SWIDTH 501 0
DWIDTH 5 0
BBX 5 7 0 -2
BITMAP
4000
8140
8140
5240
1980
0200
0040
ENDCHAR
STARTCHAR Wcircumflex
ENCODING 372
SWIDTH 703 0
DWIDTH 7 0
BBX 7 9 0 0
BITMAP
0340
0440
0000
0000
4010
8018
8508
8608
24A4
ENDCHAR
STARTCHAR wcircumflex
ENCODING 373
SWIDTH 656 0
DWIDTH 7 0
BBX 7 7 0 0
BITMAP
0740
0440
0000
8010
8210
8214
29A0
ENDCHAR
STARTCHAR Ycircumflex
ENCODING 374
SWIDTH 403 0
DWIDTH 4 0
BBX 4 9 0 0
BITMAP
18
15
00
81
26
09
08
08
08
ENDCHAR
STARTCHAR ycircumflex
ENCODING 375
SWIDTH 487 0
DWIDTH 5 0
BBX 5 12 0 -5
BITMAP
0D00
1100
0000
4040
8040
5180
1980
0040
0040
0080
5140
1A00
ENDCHAR
STARTCHAR Ydieresis
ENCODING 376
SWIDTH 403 0
DWIDTH 4 0
BBX 4 7 0 0
BITMAP
55
81
26
09
08
08
08
ENDCHAR
STARTCHAR Zacute
ENCODING 377
SWIDTH 571 0
DWIDTH 6 0
BBX 6 9 0 0
BITMAP
0100
0800
1000
5500
0100
0640
1A40
0800
1A90
ENDCHAR
STARTCHAR zacute
ENCODING 378
SWIDTH 459 0
DWIDTH 5 0
BBX 4 8 0 0
BITMAP
04
14
00
59
05
69
20
3A
ENDCHAR
STARTCHAR Zdotaccent
ENCODING 379
SWIDTH 571 0
DWIDTH 6 0
BBX 6 8 0 0
BITMAP
0400
1400
5500
0100
0640
1A40
0800
1A90
ENDCHAR
STARTCHAR zdotaccent
ENCODING 380
SWIDTH 459 0
DWIDTH 5 0
BBX 4 7 0 0
BITMAP
04
04
59
05
69
20
3A
ENDCHAR
STARTCHAR Zcaron
ENCODING 381
SWIDTH 571 0
DWIDTH 6 0
BBX 6 8 0 0
BITMAP
1900
1000
5500
0100
0640
1A40
0800
1A90
ENDCHAR
STARTCHAR zcaron
ENCODING 382
SWIDTH 459 0
DWIDTH 5 0
BBX 4 7 0 0
BITMAP
28
00
59
05
69
20
3A
ENDCHAR
STARTCHAR florin
ENCODING 402
SWIDTH 376 0
DWIDTH 4 0
BBX 6 10 -1 -3
BITMAP
0680
0810
0800
0800
1900
0800
0800
0800
9800
1400
ENDCHAR
STARTCHAR AEacute
ENCODING 508
SWIDTH 960 0
DWIDTH 10 0
BBX 9 9 0 0
BITMAP
001000
155000
115400
40A540
406000
95A640
815000
405000
506A80
ENDCHAR
STARTCHAR aeacute
ENCODING 509
SWIDTH 881 0
DWIDTH 9 0
BBX 9 8 0 -1
BITMAP
008000
000000
192900
028100
669800
808000
6AA540
000400
ENDCHAR
STARTCHAR Oslashacute
ENCODING 510
SWIDTH 609 0
DWIDTH 6 0
BBX 6 8 0 -1
BITMAP
0500
0400
2A00
4280
4120
5420
2A80
1400
ENDCHAR
STARTCHAR oslashacute
ENCODING 511
SWIDTH 487 0
DWIDTH 5 0
BBX 5 6 0 0
BITMAP
0800
0400
2740
4640
8940
7A00
ENDCHAR
STARTCHAR Scommaaccent
ENCODING 536
SWIDTH 627 0
DWIDTH 6 0
BBX 6 9 0 -3
BITMAP
1580
2000
0900
0190
8020
1990
0000
0500
0500
ENDCHAR
STARTCHAR scommaaccent
ENCODING 537
SWIDTH 514 0
DWIDTH 5 0
BBX 5 8 0 -3
BITMAP
1400
8100
1500
0080
6A40
0000
0800
0800
ENDCHAR
STARTCHAR circumflex
ENCODING 710
SWIDTH 375 0
DWIDTH 4 0
BBX 3 2 0 5
BITMAP
28
54
ENDCHAR
STARTCHAR caron
ENCODING 711
SWIDTH 375 0
DWIDTH 4 0
BBX 2 1 1 5
BITMAP
A0
ENDCHAR
STARTCHAR breve
ENCODING 728
SWIDTH 224 0
DWIDTH 2 0
BBX 2 1 0 4
BITMAP
60
ENDCHAR
STARTCHAR dotaccent
ENCODING 729
SWIDTH 152 0
DWIDTH 2 0
BBX 1 1 0 5
BITMAP
40
ENDCHAR
STARTCHAR ring
ENCODING 730
SWIDTH 333 0
DWIDTH 3 0
BBX 2 2 1 4
BITMAP
50
50
ENDCHAR
STARTCHAR ogonek
ENCODING 731
SWIDTH 254 0
DWIDTH 3 0
BBX 2 3 0 -2
BITMAP
10
80
50
ENDCHAR
STARTCHAR tilde
ENCODING 732
SWIDTH 402 0
DWIDTH 4 0
BBX 4 2 0 4
BITMAP
11
58
ENDCHAR
STARTCHAR hungarumlaut
ENCODING 733
SWIDTH 264 0
DWIDTH 3 0
BBX 3 2 0 4
BITMAP
54
50
ENDCHAR
STARTCHAR Wgrave
ENCODING 7808
SWIDTH 703 0
DWIDTH 7 0
BBX 7 8 0 0
BITMAP
0100
0100
0000
4010
8018
8508
8608
24A4
ENDCHAR
STARTCHAR wgrave
ENCODING 7809
SWIDTH 656 0
DWIDTH 7 0
BBX 7 6 0 0
BITMAP
0100
0100
8010
8210
8214
29A0
ENDCHAR
STARTCHAR Wacute
ENCODING 7810
SWIDTH 703 0
DWIDTH 7 0
BBX 7 8 0 0
BITMAP
0100
0500
0000
4010
8018
8508
8608
24A4
ENDCHAR
STARTCHAR wacute
ENCODING 7811
SWIDTH 656 0
DWIDTH 7 0
BBX 7 7 0 0
BITMAP
0100
0500
0000
8010
8210
8214
29A0
ENDCHAR
STARTCHAR Wdieresis
ENCODING 7812
SWIDTH 703 0
DWIDTH 7 0
BBX 7 7 0 0
BITMAP
0540
0000
4010
8018
8508
8608
24A4
ENDCHAR
STARTCHAR wdieresis
ENCODING 7813
SWIDTH 656 0
DWIDTH 7 0
BBX 7 5 0 0
BITMAP
0940
8010
8210
8214
29A0
ENDCHAR
STARTCHAR Ygrave
ENCODING 7922
SWIDTH 403 0
DWIDTH 4 0
BBX 4 9 0 0
BITMAP
10
04
00
81
26
09
08
08
08
ENDCHAR
STARTCHAR ygrave
ENCODING 7923
SWIDTH 487 0
DWIDTH 5 0
BBX 5 11 0 -5
BITMAP
0400
0400
4040
8040
5180
1980
0040
0040
0080
5140
1A00
ENDCHAR
STARTCHAR endash
ENCODING 8211
SWIDTH 287 0
DWIDTH 3 0
BBX 3 1 0 2
BITMAP
54
ENDCHAR
STARTCHAR emdash
ENCODING 8212
SWIDTH 512 0
DWIDTH 5 0
BBX 5 1 0 2
BITMAP
6540
ENDCHAR
STARTCHAR quoteleft
ENCODING 8216
SWIDTH 102 0
DWIDTH 1 0
BBX 1 2 0 5
BITMAP
80
80
ENDCHAR
STARTCHAR quoteright
ENCODING 8217
SWIDTH 102 0
DWIDTH 1 0
BBX 1 2 0 5
BITMAP
80
80
ENDCHAR
STARTCHAR quotesinglbase
ENCODING 8218
SWIDTH 102 0
DWIDTH 1 0
BBX 1 2 0 0
BITMAP
40
80
ENDCHAR
STARTCHAR quotedblleft
ENCODING 8220
SWIDTH 234 0
DWIDTH 2 0
BBX 2 3 0 5
BITMAP
50
A0
60
ENDCHAR
STARTCHAR quotedblright
ENCODING 8221
SWIDTH 234 0
DWIDTH 2 0
BBX 2 3 0 5
BITMAP
50
A0
60
ENDCHAR
STARTCHAR quotedblbase
ENCODING 8222
SWIDTH 341 0
DWIDTH 3 0
BBX 3 3 0 -1
BITMAP
04
58
28
ENDCHAR
STARTCHAR dagger
ENCODING 8224
SWIDTH 375 0
DWIDTH 4 0
BBX 3 6 0 0
BITMAP
10
24
64
14
14
04
ENDCHAR
STARTCHAR daggerdbl
ENCODING 8225
SWIDTH 375 0
DWIDTH 4 0
BBX 5 8 -1 0
BITMAP
0400
0800
0400
6A80
1A40
0500
0100
0100
ENDCHAR
STARTCHAR bullet
ENCODING 8226
SWIDTH 341 0
DWIDTH 3 0
BBX 2 3 1 1
BITMAP
50
E0
40
ENDCHAR
STARTCHAR ellipsis
ENCODING 8230
SWIDTH 612 0
DWIDTH 6 0
BBX 6 2 0 0
BITMAP
5660
6660
ENDCHAR
STARTCHAR guilsinglleft
ENCODING 8249
SWIDTH 487 0
DWIDTH 5 0
BBX 5 4 0 0
BITMAP
0240
1800
9000
6A00
ENDCHAR
STARTCHAR guilsinglright
ENCODING 8250
SWIDTH 403 0
DWIDTH 4 0
BBX 4 5 0 0
BITMAP
40
29
02
18
50
ENDCHAR
STARTCHAR fraction
ENCODING 8260
SWIDTH 309 0
DWIDTH 3 0
BBX 3 8 0 0
BITMAP
04
04
04
14
20
20
40
80
ENDCHAR
STARTCHAR Euro
ENCODING 8364
SWIDTH 741 0
DWIDTH 7 0
BBX 7 7 0 0
BITMAP
0064
0240
A950
0940
6400
0400
06A8
ENDCHAR
STARTCHAR trademark
ENCODING 8482
SWIDTH 1116 0
DWIDTH 11 0
BBX 11 6 0 0
BITMAP
5AAC14
020A64
020854
020808
020808
014408
ENDCHAR
STARTCHAR minus
ENCODING 8722
SWIDTH 287 0
DWIDTH 3 0
BBX 3 1 0 2
BITMAP
54
ENDCHAR
STARTCHAR commaaccent
ENCODING 63171
SWIDTH 375 0
DWIDTH 4 0
BBX 1 2 1 -3
BITMAP
80
80
ENDCHAR
STARTCHAR fi
ENCODING 64257
SWIDTH 551 0
DWIDTH 6 0
BBX 5 7 0 0
BITMAP
1A00
1140
1000
2200
6600
1600
0940
ENDCHAR
STARTCHAR fl
ENCODING 64258
SWIDTH 723 0
DWIDTH 7 0
BBX 5 7 0 0
BITMAP
1A00
1140
1200
2600
6600
1600
0A00
ENDCHAR
STARTCHAR .notdef
ENCODING -1
SWIDTH 375 0
DWIDTH 4 0
BBX 1 1 0 0
BITMAP
00
ENDCHAR
STARTCHAR .null
ENCODING -1
SWIDTH 0 0
DWIDTH 0 0
BBX 1 1 0 0
BITMAP
00
ENDCHAR
STARTCHAR nonmarkingreturn
ENCODING -1
SWIDTH 375 0
DWIDTH 4 0
BBX 1 1 0 0
BITMAP
00
ENDCHAR
ENDFONT
